<svg xmlns="http://www.w3.org/2000/svg" width="32" height="32"><path d="M8.5 1022.361a.5.5 0 0 0-.5.5v27a.5.5 0 0 0 .5.5h15a.5.5 0 0 0 .5-.5v-27a.5.5 0 0 0-.5-.5h-15zm.5 1h14v26H9v-26z" color="#000" font-family="sans-serif" font-weight="400" overflow="visible" style="line-height:normal;text-indent:0;text-align:start;text-decoration-line:none;text-decoration-style:solid;text-decoration-color:#000;text-transform:none;block-progression:tb;isolation:auto;mix-blend-mode:normal" transform="translate(0 -1020.362)"/><path fill-rule="evenodd" d="M14 1024.361v1h4v-1h-4z" color="#000" font-family="sans-serif" font-weight="400" overflow="visible" style="line-height:normal;text-indent:0;text-align:start;text-decoration-line:none;text-decoration-style:solid;text-decoration-color:#000;text-transform:none;block-progression:tb;isolation:auto;mix-blend-mode:normal" transform="translate(0 -1020.362)"/><path fill="#25b39e" d="M10 1026.362h12v19H10z" color="#000" overflow="visible" style="isolation:auto;mix-blend-mode:normal" transform="translate(0 -1020.362)"/><path d="M17 1047.362a1 1 0 0 1-1 1 1 1 0 0 1-1-1 1 1 0 0 1 1-1 1 1 0 0 1 1 1z" color="#000" overflow="visible" style="isolation:auto;mix-blend-mode:normal" transform="translate(0 -1020.362)"/><path fill-rule="evenodd" d="M10.195 1026.361v1h11.61v-1h-11.61z" color="#000" font-family="sans-serif" font-weight="400" overflow="visible" style="line-height:normal;text-indent:0;text-align:start;text-decoration-line:none;text-decoration-style:solid;text-decoration-color:#000;text-transform:none;block-progression:tb;isolation:auto;mix-blend-mode:normal" transform="translate(0 -1020.362)"/><path fill="#f8b84e" stroke="#000" stroke-dashoffset="2.5" stroke-linecap="round" stroke-linejoin="round" d="M25.5 1032.249c0 .893-.706 1.613-1.583 1.613-.878 0-1.584-.72-1.584-1.613h0c0 .893-.706 1.613-1.583 1.613s-1.583-.72-1.583-1.613h0c0 .893-.707 1.613-1.584 1.613-.877 0-1.583-.72-1.583-1.613h0c0 .893-.706 1.613-1.583 1.613-.878 0-1.584-.72-1.584-1.613h0c0 .893-.706 1.613-1.583 1.613-.439 0-.834-.18-1.12-.471a1.624 1.624 0 0 1-.463-1.142h0c0 .447-.177.85-.463 1.142a1.563 1.563 0 0 1-1.12.471c-.878 0-1.584-.72-1.584-1.613v-.014c0-1.608.528-1.608 3.793-5.373h11.348c3.694 3.765 3.859 3.765 3.859 5.288" color="#000" overflow="visible" style="isolation:auto;mix-blend-mode:normal" transform="translate(0 -1020.362)"/><path fill="none" stroke="#000" d="M7.028 10.265h17.944"/></svg>